<svg width="21" height="21" viewBox="0 0 21 21" fill="none" xmlns="http://www.w3.org/2000/svg">
<path d="M15.5531 11.8099C14.7648 12.5992 13.5336 13.8317 12.5026 14.8699C11.2771 14.0677 10.1693 13.1825 9.27852 12.2917C8.17847 11.1917 6.80284 9.62537 6.05944 8.51587C7.00328 7.57876 8.23759 6.34605 9.1433 5.44114L3.70216 0L0.987277 2.66602L0.983272 2.67002C0.223521 3.42977 -0.0981949 4.46686 0.027095 5.75244C0.427798 9.8633 5.45478 15.8178 9.89856 18.8001C12.4713 20.5267 16.1693 22.125 18.3566 19.9376C19.9447 18.3497 20.5517 17.7027 20.5769 17.676L20.9842 17.2411L15.5531 11.8099ZM17.486 19.067C15.8301 20.7227 12.5463 19.0941 10.5846 17.7775C6.46094 15.01 1.61421 9.34179 1.2526 5.63292C1.1648 4.73282 1.36651 4.02946 1.85197 3.54272L3.69431 1.73355L7.40126 5.44066C5.52127 7.31776 4.9549 7.87724 4.50453 8.32313L4.74341 8.73489C5.46887 9.98458 7.15148 11.9061 8.4079 13.1625C9.78609 14.5407 11.2008 15.5137 12.6801 16.4396L13.0266 16.0898C13.787 15.3225 14.8921 14.2146 15.5536 13.552L19.2657 17.2641C18.9218 17.6189 18.3475 18.2053 17.486 19.067Z" fill="white"/>
</svg>
