<svg width="22" height="22" viewBox="0 0 22 22" fill="none" xmlns="http://www.w3.org/2000/svg">
<path d="M18.7782 3.2218C16.7005 1.14421 13.9382 0 11 0C8.0618 0 5.29947 1.14421 3.2218 3.2218C1.14421 5.29947 0 8.0618 0 11C0 13.9382 1.14421 16.7005 3.2218 18.7782C5.29947 20.8558 8.0618 22 11 22C13.9382 22 16.7005 20.8558 18.7782 18.7782C20.8558 16.7005 22 13.9382 22 11C22 8.0618 20.8558 5.29947 18.7782 3.2218ZM11 20.2812C5.88229 20.2812 1.71875 16.1177 1.71875 11C1.71875 5.88229 5.88229 1.71875 11 1.71875C16.1177 1.71875 20.2812 5.88229 20.2812 11C20.2812 16.1177 16.1177 20.2812 11 20.2812Z" fill="#282829"/>
<path d="M11.8594 10.1406V3.26562H10.1406V11.8594H16.6719V10.1406H11.8594Z" fill="#282829"/>
</svg>
