<svg width="21" height="21" viewBox="0 0 21 21" fill="none" xmlns="http://www.w3.org/2000/svg">
<path d="M15.5534 11.8099C14.7651 12.5992 13.5338 13.8317 12.5028 14.8699C11.2773 14.0677 10.1696 13.1825 9.27877 12.2917C8.17871 11.1917 6.80309 9.62537 6.05968 8.51587C7.00352 7.57876 8.23783 6.34605 9.14354 5.44114L3.7024 0L0.987521 2.66602L0.983516 2.67002C0.223766 3.42977 -0.0979508 4.46686 0.0273391 5.75244C0.428043 9.8633 5.45502 15.8178 9.89881 18.8001C12.4716 20.5267 16.1695 22.125 18.3568 19.9376C19.9449 18.3497 20.552 17.7027 20.5771 17.676L20.9844 17.2411L15.5534 11.8099ZM17.4862 19.067C15.8304 20.7227 12.5466 19.0941 10.5849 17.7775C6.46118 15.01 1.61445 9.34179 1.25284 5.63292C1.16504 4.73282 1.36676 4.02946 1.85221 3.54272L3.69455 1.73355L7.4015 5.44066C5.52151 7.31776 4.95514 7.87724 4.50477 8.32313L4.74366 8.73489C5.46912 9.98458 7.15172 11.9061 8.40814 13.1625C9.78633 14.5407 11.2011 15.5137 12.6803 16.4396L13.0269 16.0898C13.7873 15.3225 14.8923 14.2146 15.5538 13.552L19.2659 17.2641C18.9221 17.6189 18.3477 18.2053 17.4862 19.067Z" fill="#282829"/>
</svg>
